<svg width="14" height="14" viewBox="0 0 14 14" fill="none" xmlns="http://www.w3.org/2000/svg">
<g clip-path="url(#clip0_10_5931)">
<path d="M4.00124 0.529196C4.00124 0.236931 3.76431 0 3.47204 0C3.17978 0 2.94285 0.236931 2.94285 0.529196V1.64351C1.92727 1.72483 1.26055 1.92442 0.770727 2.41424C0.280904 2.90406 0.0813197 3.57078 0 4.58636H14C13.9187 3.57078 13.7191 2.90406 13.2293 2.41424C12.7395 1.92442 12.0727 1.72483 11.0572 1.64351V0.529196C11.0572 0.236931 10.8202 0 10.528 0C10.2357 0 9.99879 0.236931 9.99879 0.529196V1.59669C9.52936 1.58759 9.0032 1.58759 8.4112 1.58759H5.58883C4.99681 1.58759 4.47065 1.58759 4.00124 1.59669V0.529196Z" fill="#ECE6F4"/>
<path fill-rule="evenodd" clip-rule="evenodd" d="M0 6.575C0 5.9877 7.95349e-08 5.46571 0.00903008 5H13.991C14 5.46571 14 5.9877 14 6.575V7.975C14 10.6148 14 11.9348 13.1799 12.7549C12.3598 13.575 11.0398 13.575 8.4 13.575H5.6C2.96013 13.575 1.6402 13.575 0.820099 12.7549C8.34465e-08 11.9348 0 10.6148 0 7.975V6.575ZM10.5 7.975C10.8866 7.975 11.2 7.66161 11.2 7.275C11.2 6.88839 10.8866 6.575 10.5 6.575C10.1134 6.575 9.8 6.88839 9.8 7.275C9.8 7.66161 10.1134 7.975 10.5 7.975ZM10.5 10.775C10.8866 10.775 11.2 10.4616 11.2 10.075C11.2 9.68839 10.8866 9.375 10.5 9.375C10.1134 9.375 9.8 9.68839 9.8 10.075C9.8 10.4616 10.1134 10.775 10.5 10.775ZM7.7 7.275C7.7 7.66161 7.38661 7.975 7 7.975C6.61339 7.975 6.3 7.66161 6.3 7.275C6.3 6.88839 6.61339 6.575 7 6.575C7.38661 6.575 7.7 6.88839 7.7 7.275ZM7.7 10.075C7.7 10.4616 7.38661 10.775 7 10.775C6.61339 10.775 6.3 10.4616 6.3 10.075C6.3 9.68839 6.61339 9.375 7 9.375C7.38661 9.375 7.7 9.68839 7.7 10.075ZM3.5 7.975C3.8866 7.975 4.2 7.66161 4.2 7.275C4.2 6.88839 3.8866 6.575 3.5 6.575C3.1134 6.575 2.8 6.88839 2.8 7.275C2.8 7.66161 3.1134 7.975 3.5 7.975ZM3.5 10.775C3.8866 10.775 4.2 10.4616 4.2 10.075C4.2 9.68839 3.8866 9.375 3.5 9.375C3.1134 9.375 2.8 9.68839 2.8 10.075C2.8 10.4616 3.1134 10.775 3.5 10.775Z" fill="#ECE6F4"/>
</g>
<defs>
<clipPath id="clip0_10_5931">
<rect width="14" height="14" fill="white"/>
</clipPath>
</defs>
</svg>
