<svg width="16" height="16" viewBox="0 0 16 16" fill="none" xmlns="http://www.w3.org/2000/svg">
<path fill-rule="evenodd" clip-rule="evenodd" d="M7.30385 1H8.69615C9.66635 0.999993 10.438 0.999993 11.0601 1.05166C11.6973 1.10457 12.2403 1.21529 12.7361 1.47286C13.5032 1.87134 14.1286 2.4968 14.5271 3.26391C14.7847 3.75977 14.8954 4.30268 14.9483 4.93987C15 5.56205 15 6.33365 15 7.30385V8.69615C15 9.66635 15 10.438 14.9483 11.0601C14.8954 11.6973 14.7847 12.2403 14.5271 12.7361C14.1286 13.5032 13.5032 14.1286 12.7361 14.5271C12.2403 14.7847 11.6973 14.8954 11.0601 14.9483C10.438 15 9.66635 15 8.69615 15H7.30385C6.33365 15 5.56205 15 4.93987 14.9483C4.30268 14.8954 3.75977 14.7847 3.26391 14.5271C2.4968 14.1286 1.87134 13.5032 1.47286 12.7361C1.21529 12.2403 1.10457 11.6973 1.05166 11.0601C0.999993 10.438 0.999993 9.66635 1 8.69615V7.30385C0.999993 6.33364 0.999993 5.56205 1.05166 4.93987C1.10457 4.30268 1.21529 3.75977 1.47286 3.26391C1.87134 2.4968 2.4968 1.87134 3.26391 1.47286C3.75977 1.21529 4.30268 1.10457 4.93987 1.05166C5.56205 0.999993 6.33364 0.999993 7.30385 1ZM5.05574 2.44686C4.50668 2.49245 4.17199 2.57877 3.90927 2.71525C3.39787 2.98089 2.98089 3.39787 2.71525 3.90927C2.57877 4.17199 2.49245 4.50668 2.44686 5.05574C2.40056 5.61317 2.4 6.32664 2.4 7.335V8.665C2.4 9.67335 2.40056 10.3868 2.44686 10.9443C2.49245 11.4934 2.57877 11.828 2.71525 12.0907C2.98089 12.6022 3.39787 13.0191 3.90927 13.2848C4.17199 13.4212 4.50668 13.5075 5.05574 13.5532C5.61317 13.5994 6.32664 13.6 7.335 13.6H8.665C9.67335 13.6 10.3868 13.5994 10.9443 13.5532C11.4934 13.5075 11.828 13.4212 12.0907 13.2848C12.6022 13.0191 13.0191 12.6022 13.2848 12.0907C13.4212 11.828 13.5075 11.4934 13.5532 10.9443C13.5994 10.3868 13.6 9.67335 13.6 8.665V7.335C13.6 6.32664 13.5994 5.61317 13.5532 5.05574C13.5075 4.50668 13.4212 4.17199 13.2848 3.90927C13.0191 3.39787 12.6022 2.98089 12.0907 2.71525C11.828 2.57877 11.4934 2.49245 10.9443 2.44686C10.3868 2.40056 9.67335 2.4 8.665 2.4H7.335C6.32664 2.4 5.61317 2.40056 5.05574 2.44686ZM7.87988 4.33015C8.26649 4.33015 8.57988 4.64355 8.57988 5.03015V8.50715L11.0487 9.44571C11.4101 9.58305 11.5917 9.98737 11.4543 10.3487C11.3169 10.7101 10.9126 10.8917 10.5513 10.7543L7.63117 9.6443C7.3595 9.54098 7.17988 9.28058 7.17988 8.98994V5.03015C7.17988 4.64355 7.49327 4.33015 7.87988 4.33015Z" fill="#ECE6F4" stroke="#ECE6F4"/>
</svg>
