<svg width="41" height="41" viewBox="0 0 41 41" fill="none" xmlns="http://www.w3.org/2000/svg">
<path fill-rule="evenodd" clip-rule="evenodd" d="M12.5551 1.19611C9.29931 1.34301 6.4774 2.139 4.19877 4.40801C1.91218 6.68895 1.12608 9.52203 0.978812 12.7439C0.887268 14.7549 0.351969 29.9472 1.90422 33.9313C2.951 36.6192 5.01266 38.6859 7.72513 39.736C8.99081 40.2283 10.4356 40.5616 12.5551 40.6589C30.2766 41.4609 36.8458 41.0242 39.616 33.9313C40.1076 32.6688 40.4459 31.2252 40.5394 29.1111C41.3494 11.344 40.4081 7.49292 37.3195 4.40801C34.8697 1.9643 31.9881 0.300814 12.5551 1.19611ZM12.7182 37.0856C10.7779 36.9983 9.72516 36.675 9.02267 36.403C7.25549 35.7162 5.92811 34.3943 5.24552 32.6374C4.06342 29.6101 4.45548 15.2316 4.56095 12.9051C4.66444 10.6261 5.12613 8.5433 6.7341 6.93535C8.72417 4.9502 11.2953 3.97729 28.802 4.76739C31.0866 4.87061 33.1742 5.33135 34.7861 6.93535C36.7762 8.92048 37.7633 11.5114 36.9593 28.9509C36.8717 30.8864 36.5473 31.9366 36.2747 32.6374C34.4737 37.2529 30.3303 37.8936 12.7182 37.0856ZM28.995 10.3299C28.995 11.644 30.0637 12.7127 31.3831 12.7127C32.7025 12.7127 33.7732 11.644 33.7732 10.3299C33.7732 9.01571 32.7025 7.94804 31.3831 7.94804C30.0637 7.94804 28.995 9.01571 28.995 10.3299ZM10.5411 20.9265C10.5411 26.5564 15.1163 31.1208 20.7601 31.1208C26.404 31.1208 30.9791 26.5564 30.9791 20.9265C30.9791 15.2967 26.404 10.7351 20.7601 10.7351C15.1163 10.7351 10.5411 15.2967 10.5411 20.9265ZM14.1272 20.9265C14.1272 17.2739 17.0964 14.3103 20.7601 14.3103C24.4238 14.3103 27.393 17.2739 27.393 20.9265C27.393 24.5812 24.4238 27.5456 20.7601 27.5456C17.0964 27.5456 14.1272 24.5812 14.1272 20.9265Z" fill="white"/>
</svg>
