<svg width="40" height="40" viewBox="0 0 40 40" fill="none" xmlns="http://www.w3.org/2000/svg">
<path d="M36.8 -7.44979e-05H3.425C2.99482 -0.0202245 2.56488 0.0446511 2.1598 0.190876C1.75473 0.337101 1.38248 0.561775 1.06433 0.852025C0.746201 1.1423 0.488425 1.49248 0.3058 1.88248C0.123175 2.2725 0.01925 2.6947 0 3.12493V36.575C0.0252 37.4752 0.394149 38.332 1.03107 38.9687C1.668 39.6057 2.5246 39.9748 3.425 40H36.8C37.6752 39.961 38.5005 39.5805 39.0987 38.9402C39.697 38.3 40.0205 37.451 40 36.575V3.12493C40.0072 2.70618 39.9288 2.2904 39.7695 1.90305C39.6103 1.51573 39.3735 1.165 39.0737 0.872375C38.7742 0.579775 38.418 0.351476 38.027 0.201451C37.636 0.0514262 37.2185 -0.0171495 36.8 -7.44979e-05ZM12.5 33.35H6.675V15.525H12.5V33.35ZM9.725 12.8249C9.31852 12.8391 8.9135 12.7691 8.5354 12.6192C8.15727 12.4694 7.81422 12.2429 7.52782 11.9542C7.2414 11.6654 7.01778 11.3205 6.87103 10.9412C6.72425 10.5619 6.65753 10.1563 6.675 9.74993C6.65703 9.33918 6.7251 8.92923 6.87487 8.54635C7.02465 8.16345 7.2528 7.8161 7.54467 7.52658C7.83657 7.23703 8.18575 7.0117 8.56982 6.86505C8.95392 6.71838 9.36442 6.65363 9.775 6.67493C10.1815 6.66078 10.5865 6.7308 10.9646 6.88065C11.3427 7.0305 11.6858 7.25693 11.9722 7.5457C12.2586 7.83448 12.4822 8.17935 12.629 8.55868C12.7757 8.938 12.8425 9.34358 12.825 9.74993C12.843 10.1607 12.7749 10.5706 12.6251 10.9535C12.4753 11.3364 12.2472 11.6838 11.9553 11.9733C11.6634 12.2628 11.3143 12.4882 10.9302 12.6348C10.5461 12.7815 10.1356 12.8462 9.725 12.8249ZM33.35 33.35H27.5V23.6C27.5 21.275 26.675 19.675 24.6 19.675C23.9555 19.6805 23.3282 19.8852 22.8047 20.2612C22.281 20.6372 21.8865 21.166 21.675 21.775C21.5125 22.2315 21.4445 22.7162 21.475 23.2V33.35H15.725V15.525H21.475V18.025C21.9863 17.0858 22.747 16.3063 23.6735 15.7723C24.6 15.2385 25.656 14.9712 26.725 14.9999C30.5 14.9999 33.35 17.5 33.35 22.825V33.35Z" fill="white"/>
</svg>
