<svg width="128" height="40" viewBox="0 0 128 40" fill="none" xmlns="http://www.w3.org/2000/svg">
<path d="M18.385 39.225C14.815 39.225 11.71 38.58 9.07 37.29C6.43 35.97 4.405 34.11 2.995 31.71C1.585 29.31 0.88 26.52 0.88 23.34C0.88 18.93 1.705 15.015 3.355 11.595C5.035 8.175 7.3 5.535 10.15 3.675C13 1.785 16.165 0.839998 19.645 0.839998C22.885 0.839998 25.345 1.68 27.025 3.36C28.705 5.01 29.545 7.2 29.545 9.93C29.545 11.76 29.215 13.23 28.555 14.34C27.925 15.45 27.01 16.005 25.81 16.005C24.97 16.005 24.31 15.81 23.83 15.42C23.35 15.03 23.11 14.46 23.11 13.71C23.11 13.44 23.17 12.945 23.29 12.225C23.47 11.325 23.56 10.605 23.56 10.065C23.56 7.335 22.105 5.97 19.195 5.97C17.215 5.97 15.325 6.615 13.525 7.905C11.725 9.195 10.27 11.1 9.16 13.62C8.05 16.11 7.495 19.08 7.495 22.53C7.495 26.13 8.5 28.92 10.51 30.9C12.52 32.85 15.49 33.825 19.42 33.825C21.37 33.825 23.335 33.585 25.315 33.105C27.325 32.595 29.545 31.83 31.975 30.81C32.425 30.63 32.8 30.54 33.1 30.54C33.58 30.54 33.94 30.72 34.18 31.08C34.42 31.44 34.54 31.905 34.54 32.475C34.54 34.305 33.55 35.655 31.57 36.525C29.44 37.455 27.22 38.145 24.91 38.595C22.63 39.015 20.455 39.225 18.385 39.225ZM36.9046 15.06C35.6446 15.06 34.6996 14.775 34.0696 14.205C33.4396 13.605 33.1246 12.78 33.1246 11.73C33.1246 10.68 33.5296 9.81 34.3396 9.12C35.1796 8.4 36.2146 8.04 37.4446 8.04C38.5546 8.04 39.4546 8.31 40.1446 8.85C40.8346 9.39 41.1796 10.155 41.1796 11.145C41.1796 12.345 40.7896 13.305 40.0096 14.025C39.2296 14.715 38.1946 15.06 36.9046 15.06ZM36.5446 39.225C34.5946 39.225 33.1696 38.535 32.2696 37.155C31.3996 35.775 30.9646 33.945 30.9646 31.665C30.9646 30.315 31.1296 28.59 31.4596 26.49C31.8196 24.36 32.2696 22.38 32.8096 20.55C33.0796 19.59 33.4396 18.93 33.8896 18.57C34.3396 18.21 35.0596 18.03 36.0496 18.03C37.5796 18.03 38.3446 18.54 38.3446 19.56C38.3446 20.31 38.0596 22.05 37.4896 24.78C36.7696 28.08 36.4096 30.315 36.4096 31.485C36.4096 32.385 36.5296 33.075 36.7696 33.555C37.0096 34.035 37.4146 34.275 37.9846 34.275C38.5246 34.275 39.1996 33.9 40.0096 33.15C40.8196 32.4 41.8996 31.215 43.2496 29.595C43.6096 29.175 44.0146 28.965 44.4646 28.965C44.8546 28.965 45.1546 29.145 45.3646 29.505C45.6046 29.865 45.7246 30.36 45.7246 30.99C45.7246 32.19 45.4396 33.12 44.8696 33.78C41.8996 37.41 39.1246 39.225 36.5446 39.225ZM45.2788 39.225C44.1388 39.225 43.3288 38.625 42.8488 37.425C42.3988 36.225 42.1738 34.305 42.1738 31.665C42.1738 27.765 42.7288 24.06 43.8388 20.55C44.1088 19.68 44.5438 19.05 45.1438 18.66C45.7738 18.24 46.6438 18.03 47.7538 18.03C48.3538 18.03 48.7738 18.105 49.0138 18.255C49.2538 18.405 49.3738 18.69 49.3738 19.11C49.3738 19.59 49.1488 20.67 48.6988 22.35C48.3988 23.55 48.1588 24.6 47.9788 25.5C47.7988 26.4 47.6488 27.51 47.5288 28.83C48.5188 26.25 49.6288 24.15 50.8588 22.53C52.0888 20.91 53.2888 19.755 54.4588 19.065C55.6588 18.375 56.7538 18.03 57.7438 18.03C59.6938 18.03 60.6688 19.005 60.6688 20.955C60.6688 22.125 60.3388 24.24 59.6788 27.3C59.1088 29.91 58.8238 31.635 58.8238 32.475C58.8238 33.675 59.2588 34.275 60.1288 34.275C60.7288 34.275 61.4338 33.915 62.2438 33.195C63.0838 32.445 64.1938 31.245 65.5738 29.595C65.9338 29.175 66.3388 28.965 66.7888 28.965C67.1788 28.965 67.4788 29.145 67.6888 29.505C67.9288 29.865 68.0488 30.36 68.0488 30.99C68.0488 32.19 67.7638 33.12 67.1938 33.78C65.9038 35.37 64.5088 36.675 63.0088 37.695C61.5388 38.715 59.8588 39.225 57.9688 39.225C56.4388 39.225 55.2838 38.79 54.5038 37.92C53.7238 37.02 53.3338 35.73 53.3338 34.05C53.3338 33.21 53.5438 31.71 53.9638 29.55C54.3538 27.66 54.5488 26.355 54.5488 25.635C54.5488 25.155 54.3838 24.915 54.0538 24.915C53.6638 24.915 53.1088 25.425 52.3888 26.445C51.6988 27.435 50.9788 28.755 50.2288 30.405C49.5088 32.055 48.9238 33.795 48.4738 35.625C48.1438 37.035 47.7538 37.995 47.3038 38.505C46.8838 38.985 46.2088 39.225 45.2788 39.225ZM80.518 30.315C80.908 30.315 81.208 30.495 81.418 30.855C81.658 31.215 81.778 31.71 81.778 32.34C81.778 33.42 81.523 34.35 81.013 35.13C80.173 36.42 79.063 37.425 77.683 38.145C76.333 38.865 74.713 39.225 72.823 39.225C69.943 39.225 67.708 38.37 66.118 36.66C64.528 34.92 63.733 32.58 63.733 29.64C63.733 27.57 64.168 25.65 65.038 23.88C65.908 22.08 67.108 20.655 68.638 19.605C70.198 18.555 71.953 18.03 73.903 18.03C75.643 18.03 77.038 18.555 78.088 19.605C79.138 20.625 79.663 22.02 79.663 23.79C79.663 25.86 78.913 27.645 77.413 29.145C75.943 30.615 73.423 31.785 69.853 32.655C70.573 34.035 71.788 34.725 73.498 34.725C74.728 34.725 75.733 34.44 76.513 33.87C77.323 33.3 78.253 32.34 79.303 30.99C79.663 30.54 80.068 30.315 80.518 30.315ZM73.138 22.44C72.028 22.44 71.083 23.085 70.303 24.375C69.553 25.665 69.178 27.225 69.178 29.055V29.145C70.948 28.725 72.343 28.095 73.363 27.255C74.383 26.415 74.893 25.44 74.893 24.33C74.893 23.76 74.728 23.31 74.398 22.98C74.098 22.62 73.678 22.44 73.138 22.44ZM102.169 33.96C102.799 33.96 103.279 34.17 103.609 34.59C103.939 35.01 104.104 35.535 104.104 36.165C104.104 36.945 103.849 37.65 103.339 38.28C102.859 38.88 102.199 39.18 101.359 39.18C99.919 39.18 97.774 39.075 94.924 38.865C94.354 38.835 93.304 38.775 91.774 38.685C90.244 38.595 89.044 38.55 88.174 38.55C87.784 38.55 87.214 38.685 86.464 38.955C86.314 38.985 86.014 39.06 85.564 39.18C85.144 39.3 84.784 39.36 84.484 39.36C84.004 39.36 83.599 39.15 83.269 38.73C82.969 38.28 82.819 37.62 82.819 36.75C82.819 35.79 83.044 35.055 83.494 34.545C83.944 34.005 84.649 33.525 85.609 33.105C87.649 32.205 89.569 31.065 91.369 29.685C93.199 28.275 94.654 26.76 95.734 25.14C96.844 23.52 97.399 21.975 97.399 20.505C97.399 19.335 97.129 18.48 96.589 17.94C96.079 17.37 95.254 17.085 94.114 17.085C92.794 17.085 91.729 17.445 90.919 18.165C90.139 18.885 89.749 19.89 89.749 21.18C89.749 22.95 88.864 23.835 87.094 23.835C86.254 23.835 85.594 23.595 85.114 23.115C84.664 22.635 84.439 21.945 84.439 21.045C84.439 19.545 84.829 18.165 85.609 16.905C86.389 15.645 87.559 14.64 89.119 13.89C90.679 13.11 92.584 12.72 94.834 12.72C97.534 12.72 99.649 13.395 101.179 14.745C102.709 16.095 103.474 17.97 103.474 20.37C103.474 22.65 102.469 25.035 100.459 27.525C98.479 30.015 95.614 32.22 91.864 34.14L102.169 33.96ZM121.905 26.175C123.435 26.385 124.71 27.015 125.73 28.065C126.78 29.115 127.305 30.435 127.305 32.025C127.305 33.555 126.84 34.86 125.91 35.94C124.98 37.02 123.72 37.845 122.13 38.415C120.57 38.955 118.86 39.225 117 39.225C113.73 39.225 111.27 38.655 109.62 37.515C108 36.375 107.19 34.95 107.19 33.24C107.19 32.25 107.43 31.485 107.91 30.945C108.39 30.375 109.035 30.09 109.845 30.09C110.535 30.09 111.045 30.27 111.375 30.63C111.735 30.96 112.035 31.545 112.275 32.385C112.485 33.195 112.92 33.81 113.58 34.23C114.24 34.65 115.26 34.86 116.64 34.86C117.96 34.86 119.04 34.62 119.88 34.14C120.75 33.63 121.185 32.865 121.185 31.845C121.185 30.795 120.78 30.03 119.97 29.55C119.16 29.04 117.9 28.755 116.19 28.695C115.56 28.665 115.08 28.455 114.75 28.065C114.45 27.645 114.3 27.15 114.3 26.58C114.3 25.86 114.42 25.35 114.66 25.05C114.93 24.72 115.38 24.495 116.01 24.375C117.99 24.075 119.415 23.505 120.285 22.665C121.185 21.795 121.635 20.76 121.635 19.56C121.635 17.91 120.495 17.085 118.215 17.085C115.695 17.085 114.21 18.075 113.76 20.055C113.55 20.865 113.235 21.45 112.815 21.81C112.425 22.14 111.87 22.305 111.15 22.305C110.34 22.305 109.71 22.08 109.26 21.63C108.84 21.15 108.63 20.52 108.63 19.74C108.63 18.54 109.05 17.4 109.89 16.32C110.73 15.24 111.915 14.37 113.445 13.71C115.005 13.05 116.82 12.72 118.89 12.72C121.77 12.72 123.975 13.275 125.505 14.385C127.035 15.495 127.8 17.145 127.8 19.335C127.8 20.775 127.245 22.125 126.135 23.385C125.055 24.615 123.645 25.545 121.905 26.175Z" fill="url(#paint0_linear_3_1630)"/>
<defs>
<linearGradient id="paint0_linear_3_1630" x1="-2" y1="-1" x2="142.848" y2="44.212" gradientUnits="userSpaceOnUse">
<stop offset="0.234375" stop-color="#853CB3"/>
<stop offset="1" stop-color="#FF0099"/>
</linearGradient>
</defs>
</svg>
