<svg width="16" height="14" viewBox="0 0 16 14" fill="none" xmlns="http://www.w3.org/2000/svg">
<path fill-rule="evenodd" clip-rule="evenodd" d="M15 6L12 8C12 7.393 11.724 6.856 11.297 6.4895C12.313 5.8765 13 4.773 13 3.5C13 1.567 11.433 0 9.5 0C7.567 0 6 1.567 6 3.5C6 4.481 6.406 5.3645 7.0555 6H5.2215C5.7 5.4685 6 4.772 6 4C6 2.3435 4.6565 1 3 1C1.3435 1 0 2.3435 0 4C0 4.9045 0.408 5.70499 1.041 6.25549C0.4235 6.59549 0 7.245 0 8V12C0 13.1045 0.8955 14 2 14H10C11.1045 14 12 13.1045 12 12L15 14C15.552 14 16 13.552 16 13V7C16 6.448 15.552 6 15 6Z" fill="url(#paint0_linear_21_2532)"/>
<defs>
<linearGradient id="paint0_linear_21_2532" x1="0" y1="0" x2="17.2388" y2="1.76903" gradientUnits="userSpaceOnUse">
<stop offset="0.234375" stop-color="#5A0091"/>
<stop offset="1" stop-color="#B61E79"/>
</linearGradient>
</defs>
</svg>
